<svg width="142" height="49" viewBox="0 0 142 49" fill="none" xmlns="http://www.w3.org/2000/svg">
<g clip-path="url(#clip0_0_513)">
<path d="M71.6196 53H63.4556L63.5093 48.7837H71.6196C74.4126 48.7837 76.7401 48.2018 78.6021 47.0381C80.464 45.8564 81.8605 44.2093 82.7915 42.0967C83.7404 39.9661 84.2148 37.4775 84.2148 34.6309V32.2407C84.2148 30.0028 83.9463 28.0155 83.4092 26.2788C82.8721 24.5243 82.0843 23.0472 81.0459 21.8477C80.0075 20.6302 78.7363 19.7082 77.2324 19.0815C75.7464 18.4549 74.0366 18.1416 72.103 18.1416H63.2944V13.8984H72.103C74.6632 13.8984 76.9997 14.3281 79.1123 15.1875C81.2249 16.029 83.0422 17.2554 84.564 18.8667C86.1037 20.4601 87.2853 22.3937 88.1089 24.6675C88.9325 26.9233 89.3442 29.4657 89.3442 32.2944V34.6309C89.3442 37.4596 88.9325 40.0109 88.1089 42.2847C87.2853 44.5405 86.0947 46.4652 84.5371 48.0586C82.9974 49.652 81.1354 50.8784 78.9512 51.7378C76.7848 52.5793 74.341 53 71.6196 53ZM66.2217 13.8984V53H61.0386V13.8984H66.2217ZM95.0645 38.7935V38.1758C95.0645 36.0811 95.3688 34.1385 95.9775 32.3481C96.5863 30.5399 97.4635 28.9733 98.6094 27.6484C99.7552 26.3057 101.143 25.2673 102.772 24.5332C104.401 23.7812 106.227 23.4053 108.25 23.4053C110.292 23.4053 112.127 23.7812 113.756 24.5332C115.403 25.2673 116.799 26.3057 117.945 27.6484C119.109 28.9733 119.995 30.5399 120.604 32.3481C121.213 34.1385 121.517 36.0811 121.517 38.1758V38.7935C121.517 40.8882 121.213 42.8307 120.604 44.6211C119.995 46.4115 119.109 47.978 117.945 49.3208C116.799 50.6457 115.412 51.6841 113.783 52.436C112.171 53.1701 110.345 53.5371 108.304 53.5371C106.263 53.5371 104.428 53.1701 102.799 52.436C101.17 51.6841 99.7731 50.6457 98.6094 49.3208C97.4635 47.978 96.5863 46.4115 95.9775 44.6211C95.3688 42.8307 95.0645 40.8882 95.0645 38.7935ZM100.033 38.1758V38.7935C100.033 40.2437 100.203 41.6133 100.543 42.9023C100.883 44.1735 101.393 45.3014 102.074 46.2861C102.772 47.2708 103.64 48.0496 104.679 48.6226C105.717 49.1776 106.926 49.4551 108.304 49.4551C109.665 49.4551 110.855 49.1776 111.876 48.6226C112.914 48.0496 113.774 47.2708 114.454 46.2861C115.134 45.3014 115.645 44.1735 115.985 42.9023C116.343 41.6133 116.522 40.2437 116.522 38.7935V38.1758C116.522 36.7435 116.343 35.3918 115.985 34.1206C115.645 32.8315 115.125 31.6947 114.427 30.71C113.747 29.7074 112.888 28.9196 111.849 28.3467C110.829 27.7738 109.629 27.4873 108.25 27.4873C106.89 27.4873 105.69 27.7738 104.652 28.3467C103.631 28.9196 102.772 29.7074 102.074 30.71C101.393 31.6947 100.883 32.8315 100.543 34.1206C100.203 35.3918 100.033 36.7435 100.033 38.1758ZM60.2598 75.75H65.2549V111.36L64.8252 117H60.2598V75.75ZM84.8862 102.229V102.793C84.8862 104.906 84.6356 106.867 84.1343 108.675C83.633 110.465 82.8989 112.023 81.9321 113.348C80.9653 114.673 79.7837 115.702 78.3872 116.436C76.9907 117.17 75.3883 117.537 73.5801 117.537C71.736 117.537 70.1157 117.224 68.7192 116.597C67.3407 115.953 66.1769 115.031 65.228 113.831C64.2791 112.632 63.5182 111.181 62.9453 109.48C62.3903 107.78 62.0054 105.864 61.7905 103.733V101.263C62.0054 99.1143 62.3903 97.1896 62.9453 95.4888C63.5182 93.7879 64.2791 92.3377 65.228 91.1382C66.1769 89.9207 67.3407 88.9987 68.7192 88.3721C70.0978 87.7275 71.7002 87.4053 73.5264 87.4053C75.3525 87.4053 76.9728 87.7633 78.3872 88.4795C79.8016 89.1777 80.9832 90.1803 81.9321 91.4873C82.8989 92.7943 83.633 94.3608 84.1343 96.187C84.6356 97.9953 84.8862 100.009 84.8862 102.229ZM79.8911 102.793V102.229C79.8911 100.779 79.7568 99.4186 79.4883 98.1475C79.2197 96.8584 78.79 95.7305 78.1992 94.7637C77.6084 93.779 76.8296 93.0091 75.8628 92.4541C74.896 91.8812 73.7054 91.5947 72.291 91.5947C71.0378 91.5947 69.9456 91.8096 69.0146 92.2393C68.1016 92.6689 67.3228 93.2508 66.6782 93.9849C66.0337 94.701 65.5055 95.5246 65.0938 96.4556C64.6999 97.3687 64.4045 98.3175 64.2075 99.3022V105.774C64.494 107.028 64.9595 108.236 65.604 109.4C66.2664 110.546 67.1437 111.486 68.2358 112.22C69.3459 112.954 70.7155 113.321 72.3447 113.321C73.6875 113.321 74.8333 113.052 75.7822 112.515C76.749 111.96 77.5278 111.199 78.1187 110.232C78.7274 109.266 79.175 108.147 79.4614 106.875C79.7479 105.604 79.8911 104.244 79.8911 102.793ZM108.949 110.286V87.9424H113.944V117H109.19L108.949 110.286ZM109.889 104.163L111.957 104.109C111.957 106.043 111.751 107.833 111.339 109.48C110.945 111.11 110.3 112.524 109.405 113.724C108.51 114.923 107.337 115.863 105.887 116.543C104.437 117.206 102.674 117.537 100.597 117.537C99.1823 117.537 97.8843 117.331 96.7026 116.919C95.5389 116.508 94.5363 115.872 93.6948 115.013C92.8534 114.153 92.1999 113.034 91.7344 111.656C91.2868 110.277 91.063 108.621 91.063 106.688V87.9424H96.0312V106.741C96.0312 108.048 96.1745 109.131 96.4609 109.991C96.7653 110.832 97.1681 111.504 97.6694 112.005C98.1886 112.488 98.7616 112.828 99.3882 113.025C100.033 113.222 100.695 113.321 101.375 113.321C103.488 113.321 105.162 112.918 106.397 112.112C107.633 111.289 108.519 110.188 109.056 108.809C109.611 107.413 109.889 105.864 109.889 104.163ZM126.915 75.75V117H121.92V75.75H126.915ZM72.3447 181.537C70.3216 181.537 68.4865 181.197 66.8394 180.517C65.2101 179.818 63.8047 178.843 62.623 177.589C61.4593 176.336 60.5641 174.85 59.9375 173.131C59.3109 171.413 58.9976 169.533 58.9976 167.492V166.364C58.9976 164 59.3467 161.897 60.0449 160.053C60.7432 158.191 61.6921 156.615 62.8916 155.326C64.0911 154.037 65.4518 153.061 66.9736 152.399C68.4954 151.736 70.071 151.405 71.7002 151.405C73.777 151.405 75.5674 151.763 77.0713 152.479C78.5931 153.196 79.8374 154.198 80.8042 155.487C81.771 156.758 82.4871 158.262 82.9526 159.999C83.4181 161.718 83.6509 163.598 83.6509 165.639V167.868H61.9517V163.812H78.6826V163.437C78.611 162.147 78.3424 160.894 77.877 159.677C77.4294 158.459 76.7132 157.457 75.7285 156.669C74.7438 155.881 73.401 155.487 71.7002 155.487C70.5723 155.487 69.5339 155.729 68.585 156.212C67.6361 156.678 66.8215 157.376 66.1411 158.307C65.4608 159.238 64.9326 160.375 64.5566 161.718C64.1807 163.061 63.9927 164.609 63.9927 166.364V167.492C63.9927 168.87 64.1807 170.168 64.5566 171.386C64.9505 172.585 65.5145 173.642 66.2485 174.555C67.0005 175.468 67.9046 176.184 68.9609 176.703C70.0352 177.222 71.2526 177.482 72.6133 177.482C74.3678 177.482 75.8538 177.124 77.0713 176.408C78.2887 175.692 79.354 174.734 80.2671 173.534L83.2749 175.924C82.6483 176.873 81.8516 177.777 80.8848 178.637C79.918 179.496 78.7274 180.194 77.313 180.731C75.9165 181.269 74.2604 181.537 72.3447 181.537Z" fill="#333333"/>
<path d="M90.435 181.27C89.655 181.27 88.995 181 88.455 180.46C87.915 179.92 87.645 179.26 87.645 178.48C87.645 177.7 87.915 177.04 88.455 176.5C88.995 175.96 89.655 175.69 90.435 175.69C91.185 175.69 91.815 175.96 92.325 176.5C92.865 177.04 93.135 177.7 93.135 178.48C93.135 179.26 92.865 179.92 92.325 180.46C91.815 181 91.185 181.27 90.435 181.27Z" fill="#FFB800"/>
<path fill-rule="evenodd" clip-rule="evenodd" d="M23.3824 34.15V33.25L23.2824 33.05C23.1824 30.15 23.1824 27.25 23.1824 24.15C23.1824 23.85 23.2824 23.55 23.4824 23.35C23.4824 23.2167 23.5713 23.1722 23.6602 23.1278C23.7046 23.1056 23.7491 23.0833 23.7824 23.05H23.8824C23.8824 22.95 23.9824 22.95 23.9824 22.95H24.4824C25.1824 23.05 25.6824 23.55 25.6824 24.25C25.6824 27.35 25.6824 30.25 25.5824 33.35V34.15L24.5824 35.05H24.2824L23.3824 34.15ZM32.0848 32.6261C32.1173 32.6339 32.1499 32.6419 32.1824 32.65H32.0824L32.0848 32.6261ZM32.8824 24.65L32.0848 32.6261C31.3173 32.4424 30.5499 32.3581 29.7824 32.55C29.8334 31.1743 29.9362 29.7986 30.0381 28.4361C30.1362 27.1245 30.2334 25.8252 30.2824 24.55C30.2824 24.25 30.3824 23.95 30.6824 23.75C30.6824 23.6833 30.7158 23.65 30.7824 23.65C30.8324 23.65 30.8324 23.625 30.8324 23.6C30.8324 23.575 30.8324 23.55 30.8824 23.55L31.5824 23.25H31.6824C31.9824 23.25 32.3824 23.45 32.5824 23.75C32.7824 24.05 32.8824 24.35 32.8824 24.65ZM35.2824 33.75L33.0824 32.75L33.8824 24.55C33.9001 24.4969 33.9147 24.4469 33.9284 24.4C33.9918 24.1823 34.0356 24.0323 34.2824 23.95H34.3824L34.6824 23.65H35.3824C35.6824 23.65 36.0824 23.85 36.2824 24.15C36.4824 24.45 36.5824 24.75 36.5824 25.05L35.3824 33.95V33.65L35.2824 33.75ZM15.8824 32.35L15.8407 32.3639L15.0824 25.35C14.9824 24.75 14.3824 24.35 13.6824 24.35H12.8824C12.8824 24.45 12.7824 24.45 12.7824 24.45C12.4824 24.75 12.4824 25.05 12.4824 25.35C12.6324 26.65 12.8074 27.95 12.9824 29.25C13.1574 30.55 13.3324 31.85 13.4824 33.15L15.8407 32.3639L15.8824 32.75V32.35ZM28.8824 32.65C27.9824 32.85 27.1824 33.15 26.4824 33.65V33.35C26.5167 32.3552 26.5393 31.337 26.5621 30.3032V30.3031C26.606 28.3232 26.651 26.2866 26.7824 24.25C26.7824 23.95 26.8824 23.75 27.0824 23.45H27.4824C27.4824 23.45 27.4824 23.35 27.5824 23.35H27.8824C27.8824 23.35 27.8824 23.25 27.9824 23.25H28.0824C28.7824 23.25 29.3824 23.85 29.3824 24.55C29.0824 27.35 28.9824 30.05 28.8824 32.85V32.65ZM22.4824 33.55L22.4619 33.5406C22.3448 31.7132 22.3026 29.8491 22.2607 27.9979L22.2607 27.9978V27.9978C22.2383 27.009 22.216 26.0239 22.1824 25.05C22.1824 24.7186 22.0452 24.5245 21.8844 24.2971C21.8511 24.25 21.8167 24.2015 21.7824 24.15C21.5824 23.85 21.1824 23.85 20.8824 23.85H19.9824C19.6824 24.05 19.5824 24.45 19.5824 24.75C19.6324 26.05 19.7324 27.325 19.8324 28.6L19.8324 28.6L19.8324 28.6C19.9324 29.875 20.0324 31.15 20.0824 32.45L22.4619 33.5406C22.4685 33.6438 22.4753 33.747 22.4824 33.85V33.55ZM16.7824 32.25H18.9824L18.9824 32.25C18.7824 29.75 18.5824 27.25 18.4824 24.85C18.4824 24.55 18.2824 24.25 17.9824 24.05C17.6824 23.85 17.2824 23.85 16.9824 23.85H16.8824C16.7824 23.85 16.7824 23.95 16.7824 23.95H16.6824C16.5824 23.95 16.5824 24.05 16.5824 24.05H16.4824C16.4824 24.15 16.3824 24.15 16.3824 24.15H16.2824C16.0824 24.45 15.9824 24.65 15.9824 24.95L16.7824 32.25Z" fill="black"/>
<path d="M38.8824 36.05C38.1824 35.45 37.3824 34.85 36.4824 34.35C36.8824 31.35 37.2824 28.45 37.7824 25.45C37.7824 24.35 36.9824 23.35 35.8824 23.25C35.1824 23.15 34.4824 23.45 34.0824 23.95C33.6824 23.35 33.0824 22.95 32.2824 22.95C31.5824 22.95 30.9824 23.15 30.4824 23.65C30.0824 23.05 29.3824 22.75 28.6824 22.75C27.9824 22.75 27.3824 23.05 26.8824 23.65C26.4824 23.15 25.8824 22.85 25.2824 22.75C24.5824 22.75 23.9824 23.25 23.4824 23.75C23.0824 23.15 22.3824 22.85 21.6824 23.05C20.9824 23.05 20.2824 23.45 19.8824 24.05C19.4824 23.55 18.7824 23.25 18.0824 23.35C17.3824 23.35 16.7824 23.75 16.4824 24.35C15.9824 23.95 15.2824 23.75 14.5824 23.85C13.4824 23.95 12.7824 24.85 12.7824 25.95L13.8824 33.75L11.3824 35.15H11.2824C11.2824 34.95 11.1824 34.65 11.1824 34.25C10.7824 32.05 10.3824 29.65 10.0824 27.55V26.85V26.45C11.7824 25.25 12.7824 23.35 12.9824 21.25H13.1824L15.5824 20.05C16.1824 20.45 16.8824 20.75 17.5824 20.95C19.3824 21.55 21.2824 21.45 23.0824 20.85C24.1824 20.45 25.2824 19.85 26.1824 19.15C26.4824 19.35 26.7824 19.55 27.1824 19.65C28.7824 20.15 30.5824 20.05 32.1824 19.55L33.0824 19.15C35.1824 21.25 38.1824 22.05 41.0824 21.25C41.0824 21.55 40.9824 21.85 40.9824 22.15H40.8824C40.2824 26.55 39.4824 31.65 38.8824 35.75C38.7824 35.95 38.6824 36.05 38.4824 36.25L38.8824 36.05Z" fill="black"/>
<path fill-rule="evenodd" clip-rule="evenodd" d="M44.0824 10.95C42.9824 7.65 39.3824 5.75 35.9824 6.55C36.1824 5.65 35.9824 4.75 35.7824 3.95C35.1824 2.35 33.8824 1.15 32.3824 0.45C30.7824 -0.15 29.0824 -0.15 27.4824 0.45C26.3824 0.85 25.3824 1.45 24.5824 2.25C22.5824 1.25 20.3824 1.15 18.2824 1.85C15.7824 2.65 13.7824 4.65 13.0824 7.15C11.5824 6.75 9.98244 6.75 8.58244 7.25C4.98244 8.25 2.98244 11.95 3.98244 15.55C1.18244 16.85 -0.11756 19.75 0.78244 22.45C1.28244 23.85 2.38244 24.95 3.78244 25.55C5.18244 26.15 6.68244 26.15 8.08244 25.55C10.4824 24.75 12.0824 22.45 11.9824 19.95L12.7824 19.75C13.6824 19.45 14.4824 18.95 15.1824 18.35C17.1824 19.85 19.8824 20.25 22.1824 19.25C23.2824 18.95 24.3824 18.35 25.1824 17.45C26.8824 18.45 28.9824 18.65 30.8824 17.95L32.0824 17.45C33.9824 19.65 36.9824 20.45 39.6824 19.55C41.4824 18.95 42.8824 17.75 43.7824 16.05C44.5824 14.45 44.7824 12.45 44.1824 10.75V10.75L44.0824 10.95Z" stroke="black"/>
<path d="M39.9824 17.65C38.0824 19.05 35.4824 18.75 33.8824 17.05C33.7824 16.95 33.6824 16.65 33.7824 16.55H33.8824C33.9824 16.35 34.0824 16.35 34.3824 16.45C36.7824 18.75 38.7824 17.65 39.4824 17.15C40.1824 16.65 41.9824 13.75 41.2824 12.25C40.5824 10.75 41.2824 11.85 41.3824 11.75C41.4824 11.65 41.7824 11.75 41.8824 11.85C42.6824 13.95 41.8824 16.35 39.9824 17.55V17.65Z" fill="black"/>
<path d="M33.8824 8.85C33.7824 8.95 33.6824 9.05 33.4824 8.95H33.3824C33.2824 8.95 33.1824 8.75 33.2824 8.45C34.2824 6.75 33.8824 4.55 32.2824 3.35C30.5824 2.15 28.3824 2.05 27.1824 3.25C26.9824 3.35 26.7824 3.35 26.5824 3.25C26.4824 3.25 26.3824 3.05 26.3824 2.95C26.3824 2.85 26.5824 2.75 26.6824 2.75C28.0824 1.35 30.6824 1.45 32.6824 2.85C34.5824 4.25 35.0824 6.45 33.8824 8.75V8.85Z" fill="black"/>
<path d="M22.1825 17.05C21.5825 17.85 20.0825 18.95 17.2825 18.15H16.8825C16.6825 18.15 16.6825 17.95 16.6825 17.75C16.6825 17.75 16.6825 17.55 16.8825 17.55C17.0825 17.55 17.0825 17.55 17.1825 17.55C17.3825 17.65 20.6825 17.95 21.6825 16.75C22.6825 15.75 22.8825 14.25 22.2825 12.95C21.6825 11.75 20.3825 10.95 19.0825 11.05C18.8825 11.05 18.6825 10.95 18.6825 10.85C18.6825 10.75 18.6825 10.65 18.7825 10.55C18.7825 10.55 18.9825 10.45 19.0825 10.45C20.6825 10.25 22.1825 11.15 22.8825 12.55C23.5825 14.05 23.2825 15.85 22.1825 17.15V17.05Z" fill="black"/>
<path d="M8.3825 24.05H8.2825C7.0825 24.85 5.5825 24.65 4.5825 23.65C3.3825 22.35 2.9825 20.55 3.4825 18.95C3.9825 17.45 5.4825 16.45 7.0825 16.45C7.2825 16.45 7.4825 16.65 7.4825 16.85C7.4825 17.05 7.3825 17.05 7.0825 17.05C5.6825 17.05 4.4825 17.95 4.0825 19.15C3.5825 20.55 3.8825 22.05 4.8825 23.15C5.7825 23.85 6.9825 23.95 7.9825 23.35C8.0825 23.35 8.3825 23.35 8.3825 23.55C8.3825 23.55 8.3825 23.65 8.3825 23.75C8.3825 23.85 8.3825 23.85 8.3825 23.95V24.05Z" fill="black"/>
<path fill-rule="evenodd" clip-rule="evenodd" d="M43.1825 37.75C42.7825 38.35 43.5825 40.15 44.8825 39.45C43.7825 38.95 44.6825 37.45 45.8825 38.35C46.5825 38.95 46.7825 39.95 46.3825 40.75C45.9825 41.55 45.0825 41.95 44.1825 41.65C39.6825 40.75 33.4825 29.15 25.7825 37.55C19.6825 28.95 11.7825 39.15 7.08247 40.15C4.68247 40.65 4.28247 37.45 5.58247 36.65C6.88247 35.95 7.68247 37.55 6.58247 37.85C7.88247 38.55 8.68248 36.95 8.38247 36.25C6.78247 31.85 -1.21753 38.95 4.48247 43.85C10.1825 48.75 19.5825 50.75 25.2825 42.25C32.1825 50.95 43.1825 46.85 45.2825 45.35C52.5825 39.85 45.0825 33.35 43.0825 37.75H43.1825Z" fill="#FFB800" stroke="black" stroke-width="0.5"/>
</g>
<defs>
<clipPath id="clip0_0_513">
<rect width="141" height="48.0761" fill="white" transform="translate(0.5)"/>
</clipPath>
</defs>
</svg>
